<svg id="Capa_1" enable-background="new 0 0 512 512" height="512" viewBox="0 0 512 512" width="512" xmlns="http://www.w3.org/2000/svg"><g><g><path clip-rule="evenodd" d="m341.037 399.193v-63.468-84.218-68.457h-40.619-44.418-44.418-40.62v97.427 51.761 61.767 63.468 42.066c0 2.721 2.211 4.961 4.961 4.961h160.154c2.721 0 4.961-2.239 4.961-4.961v-100.346z" fill="#a7e9a6" fill-rule="evenodd"/></g><g><path clip-rule="evenodd" d="m135.474 394.005c-17.858 0-32.598-14.74-32.598-32.599v-92.778c0-17.49-14.258-31.748-31.719-31.748-17.489 0-31.747 14.258-31.747 31.748v4.989 49.521 38.268c0 52.895 43.171 96.066 96.064 96.066h35.489l19.247-27.071-19.247-36.397h-35.489z" fill="#a7e9a6" fill-rule="evenodd"/></g><g><path clip-rule="evenodd" d="m376.526 399.193c52.893 0 96.064-43.172 96.064-96.066v-49.521-2.551c0-17.49-14.258-31.748-31.747-31.748s-31.719 14.258-31.719 31.748v52.073c0 17.887-14.74 32.599-32.598 32.599h-35.489l-18.255 29.055 18.255 34.413h35.489z" fill="#a7e9a6" fill-rule="evenodd"/></g><g><path clip-rule="evenodd" d="m313.542 237.589v266.911h22.535c2.721 0 4.961-2.239 4.961-4.961v-100.346-63.468-84.218-68.457h-40.619-44.419-44.418-40.62v22.649h111.966c20.58 0 30.614 9.496 30.614 31.89z" fill="#7fdbae" fill-rule="evenodd"/></g><g><path clip-rule="evenodd" d="m472.59 303.126v-52.073c0-17.49-14.258-31.748-31.747-31.748-6.491 0-12.557 1.984-17.603 5.357 8.645 3.969 15.222 11.707 17.603 21.09.624 2.494.964 5.102.964 7.767v52.101c0 45.44-31.832 83.679-74.351 93.572h9.071c52.892.001 96.063-43.171 96.063-96.066z" fill="#7fdbae" fill-rule="evenodd"/></g><g><path clip-rule="evenodd" d="m170.963 457.473v-63.468h-35.489v21.969c0 16.781-1.587 24.661-20.466 24.661-18.34 0-35.489-5.187-50.087-14.173 17.574 19.049 42.717 31.011 70.553 31.011z" fill="#7fdbae" fill-rule="evenodd"/></g><g><path clip-rule="evenodd" d="m350.93 117.853c-18.34-58.677-57.202-110.353-94.93-110.353s-76.59 51.676-94.958 110.353l94.958 32.599z" fill="#ffd772" fill-rule="evenodd"/></g><g><path clip-rule="evenodd" d="m256 117.853h88.836 6.094c-17.574-56.211-53.999-106.016-90.196-110.098 22.138 20.324 41.555 54.17 52.978 90.766h-6.094-88.836-50.852c-2.523 6.321-4.819 12.784-6.888 19.332h6.123z" fill="#fbba58" fill-rule="evenodd"/></g><g><path clip-rule="evenodd" d="m384.066 175.425c25.369-10.97 34.043-31.72 35.092-49.096.425-7.172 1.899-8.476-8.674-8.476-102.98 0-205.989 0-308.969 0-10.601 0-9.099 1.304-8.674 8.476 1.049 17.376 9.723 38.126 35.092 49.096 10.97 4.734 25.058 7.625 43.029 7.625h170.075c17.943 0 32.059-2.891 43.029-7.625z" fill="#f5a96c" fill-rule="evenodd"/></g><g><path clip-rule="evenodd" d="m170.963 183.05h40.62l-42.575-62.447-1.842-2.75-1.162 1.701-38.068 55.871c10.968 4.734 25.055 7.625 43.027 7.625z" fill="#eb5468" fill-rule="evenodd"/></g><g><path clip-rule="evenodd" d="m211.582 183.05h44.418 44.418l-26.418-38.778-18-26.419-18 26.419z" fill="#eb5468" fill-rule="evenodd"/></g><g><path clip-rule="evenodd" d="m341.037 183.05c17.943 0 32.059-2.891 43.029-7.625l-38.068-55.871-1.162-1.701-1.871 2.75-42.547 62.447z" fill="#eb5468" fill-rule="evenodd"/></g><g><path clip-rule="evenodd" d="m300.418 183.05h40.619c17.943 0 32.059-2.891 43.029-7.625l-17.404-25.54c-8.957 16.98-28.431 31.776-66.187 33.08z" fill="#e5384f" fill-rule="evenodd"/></g><g><path clip-rule="evenodd" d="m366.662 149.885 17.404 25.54c25.369-10.97 34.043-31.72 35.092-49.096.425-7.172 1.899-8.476-8.674-8.476h-37.955c.851 12.444.284 20.438-5.867 32.032z" fill="#ea9a58" fill-rule="evenodd"/></g><g><path d="m298.462 431.978h.113c4.142 0 7.5-3.358 7.5-7.5s-3.358-7.5-7.5-7.5h-.113c-4.142 0-7.5 3.358-7.5 7.5s3.358 7.5 7.5 7.5z"/><path d="m300.394 457.227-.113-.028c-4.014-1.003-8.09 1.438-9.095 5.457-1.005 4.018 1.438 8.09 5.457 9.095l.113.028c.61.153 1.222.226 1.825.226 3.36 0 6.418-2.275 7.27-5.683 1.005-4.018-1.438-8.091-5.457-9.095z"/><path d="m298.575 216.114h-.113c-4.142 0-7.5 3.358-7.5 7.5s3.358 7.5 7.5 7.5h.113c4.142 0 7.5-3.358 7.5-7.5s-3.358-7.5-7.5-7.5z"/><path d="m298.519 261.015c-4.142 0-7.5 3.358-7.5 7.5v105.988c0 4.142 3.358 7.5 7.5 7.5s7.5-3.358 7.5-7.5v-105.988c0-4.142-3.358-7.5-7.5-7.5z"/><path d="m255.887 328.031h.113c4.142 0 7.5-3.358 7.5-7.5s-3.358-7.5-7.5-7.5h-.113c-4.142 0-7.5 3.358-7.5 7.5s3.358 7.5 7.5 7.5z"/><path d="m213.481 429.143c4.142 0 7.5-3.358 7.5-7.5v-204.123c0-4.142-3.358-7.5-7.5-7.5s-7.5 3.358-7.5 7.5v204.124c0 4.141 3.358 7.499 7.5 7.499z"/><path d="m211.549 458.91.113.028c.61.153 1.222.226 1.825.226 3.36 0 6.418-2.275 7.27-5.683 1.005-4.018-1.438-8.09-5.457-9.095l-.113-.028c-4.013-1.004-8.09 1.438-9.095 5.457-1.005 4.018 1.439 8.09 5.457 9.095z"/><path d="m440.956 298.064h-.113c-4.142 0-7.5 3.358-7.5 7.5s3.358 7.5 7.5 7.5h.113c4.142 0 7.5-3.358 7.5-7.5s-3.358-7.5-7.5-7.5z"/><path d="m71.242 335.651h-.085c-4.142 0-7.458 3.358-7.458 7.5s3.4 7.5 7.542 7.5 7.5-3.358 7.5-7.5-3.357-7.5-7.499-7.5z"/><path d="m496.485 295.626h-16.395v-34.521h16.395c4.142 0 7.5-3.358 7.5-7.5s-3.358-7.5-7.5-7.5h-16.718c-2.442-19.312-18.961-34.299-38.924-34.299-21.625 0-39.219 17.607-39.219 39.249v52.072c0 13.839-11.259 25.099-25.098 25.099h-27.989v-69.218h16.424c4.142 0 7.5-3.358 7.5-7.5s-3.358-7.5-7.5-7.5h-16.424v-53.628c68.884-3.116 77.218-49.142 78.108-63.607.045-.752.103-1.435.154-2.053.27-3.216.605-7.218-2.479-10.572-3.232-3.515-7.973-3.794-13.835-3.794h-54.105c-9.538-28.465-23.58-54.739-39.861-74.456-19.392-23.485-40.319-35.898-60.519-35.898-20.198 0-41.126 12.413-60.522 35.896-16.281 19.713-30.332 45.988-39.884 74.457h-54.078c-5.87 0-10.617.279-13.847 3.794-3.081 3.354-2.743 7.343-2.471 10.548.053.625.112 1.314.158 2.085.872 14.451 9.16 60.485 78.107 63.599v29.294c0 4.142 3.358 7.5 7.5 7.5s7.5-3.358 7.5-7.5v-29.123h70.037v99.961c0 4.142 3.358 7.5 7.5 7.5s7.5-3.358 7.5-7.5v-99.961h70.037v306.45h-70.037v-116.488c0-4.142-3.358-7.5-7.5-7.5s-7.5 3.358-7.5 7.5v116.488h-70.037v-242.687c0-4.142-3.358-7.5-7.5-7.5s-7.5 3.358-7.5 7.5v18.664h-16.424c-4.142 0-7.5 3.358-7.5 7.5s3.358 7.5 7.5 7.5h16.424v36.761h-16.424c-4.142 0-7.5 3.358-7.5 7.5s3.358 7.5 7.5 7.5h16.424v46.768h-27.989c-13.604 0-25.098-11.494-25.098-25.099v-92.778c0-21.642-17.593-39.248-39.219-39.248-20.797 0-37.858 16.262-39.159 36.737h-16.483c-4.142 0-7.5 3.358-7.5 7.5s3.358 7.5 7.5 7.5h16.395v34.521h-16.395c-4.142 0-7.5 3.358-7.5 7.5s3.358 7.5 7.5 7.5h16.395v30.768c0 57.107 46.458 103.566 103.564 103.566 4.142 0 7.5-3.358 7.5-7.5s-3.358-7.5-7.5-7.5c-48.834 0-88.564-39.73-88.564-88.566v-92.778c0-10.753 7.038-19.889 16.748-23.055v57.581c0 4.142 3.358 7.5 7.5 7.5s7.5-3.358 7.5-7.5v-57.578c9.693 3.169 16.719 12.302 16.719 23.052v92.778c0 22.11 17.988 40.099 40.098 40.099h27.989v98.034c0 6.871 5.59 12.46 12.46 12.46h160.153c6.871 0 12.46-5.59 12.46-12.46v-41.086h19.712c4.142 0 7.5-3.358 7.5-7.5s-3.358-7.5-7.5-7.5h-19.712v-36.761h27.989c21.25 0 41.702-6.437 59.143-18.613 3.396-2.371 4.227-7.046 1.856-10.443-2.372-3.397-7.047-4.228-10.443-1.856-14.91 10.41-32.392 15.912-50.556 15.912h-27.989v-48.468h27.989c22.11 0 40.098-17.988 40.098-40.099v-52.072c0-10.75 7.025-19.883 16.719-23.053v37.566c0 4.142 3.358 7.5 7.5 7.5s7.5-3.358 7.5-7.5v-37.569c9.71 3.167 16.748 12.302 16.748 23.056v52.072c0 18.578-5.757 36.415-16.648 51.582-2.416 3.364-1.647 8.05 1.717 10.466 1.324.951 2.853 1.409 4.368 1.409 2.333 0 4.633-1.086 6.098-3.126 11.261-15.682 17.818-33.813 19.186-52.831h16.674c4.142 0 7.5-3.358 7.5-7.5s-3.359-7.5-7.501-7.5zm-86.001-170.273c.447 0 .852.003 1.22.007-.011.167-.022.336-.032.508-.609 9.905-4.656 28.514-25.089 39.932l-27.562-40.447zm-154.484-110.353c18.708 0 39.706 16.13 57.574 41.89-3.257 1.347-6.265 3.144-8.863 5.363-7.097 6.043-19.091 6.044-26.19 0-12.804-10.901-32.862-10.902-45.667 0-7.098 6.043-19.092 6.043-26.179.009-2.474-2.114-5.323-3.835-8.397-5.16 17.909-25.883 38.971-42.102 57.722-42.102zm-65.925 55.022c2.597.773 4.948 2.013 6.866 3.652 6.398 5.447 14.609 8.171 22.819 8.171 8.211 0 16.421-2.724 22.819-8.171 7.105-6.051 19.112-6.05 26.218 0 12.796 10.895 32.843 10.896 45.649-.009 2.042-1.745 4.586-3.027 7.392-3.783 7.073 12.113 13.415 25.777 18.653 40.471h-169.006c5.225-14.638 11.544-28.253 18.59-40.331zm-89.746 55.863c-.011-.178-.021-.353-.033-.524.368-.005.774-.007 1.22-.007h51.463l-27.57 40.459c-20.453-11.416-24.483-30.028-25.08-39.928zm70.634 49.665c-12.535 0-22.859-1.467-31.365-3.924l27.566-40.453 30.233 44.377zm10.386-50.197h60.466l-30.233 44.376zm44.418 50.197 30.233-44.376 30.233 44.376zm44.418-50.197h60.466l-30.233 44.376zm70.852 50.197h-26.435l30.233-44.377 27.562 40.447c-8.504 2.461-18.826 3.93-31.36 3.93z"/></g></g></svg>